<?xml version="1.0" encoding="UTF-8" standalone="no"?><svg xmlns="http://www.w3.org/2000/svg" xmlns:xlink="http://www.w3.org/1999/xlink" contentStyleType="text/css" height="208px" preserveAspectRatio="none" style="width:501px;height:208px;background:#FFFFFF;" version="1.1" viewBox="0 0 501 208" width="501px" zoomAndPan="magnify"><defs/><g><!--MD5=[ec81f511f4d20a18ef555a8be4cd58b8]
class Network--><g id="elem_Network"><rect codeLine="1" fill="#F1F1F1" height="67.0679" id="Network" rx="2.5" ry="2.5" style="stroke:#181818;stroke-width:0.5;" width="215" x="7" y="134"/><ellipse cx="82.25" cy="150" fill="#ADD1B2" rx="11" ry="11" style="stroke:#181818;stroke-width:1.0;"/><path d="M81.7188,156.9219 Q79.9688,156.9219 78.8281,156.1875 Q77.7031,155.4375 77.1406,154.0938 Q76.5938,152.7344 76.5938,150.9375 Q76.5938,148.9063 77.25,147.4531 Q77.9063,146 79.1875,145.2188 Q80.4688,144.4375 82.3438,144.4375 Q83.2344,144.4375 83.9063,144.625 Q84.5781,144.7969 85.2656,145.1406 L84.4531,147.1563 Q83.8281,146.8438 83.2813,146.7188 Q82.75,146.5938 82.2656,146.5938 Q81.0938,146.5938 80.3906,147.125 Q79.6875,147.6563 79.3906,148.6094 Q79.0938,149.5625 79.0938,150.8281 Q79.0938,152.8438 79.8125,153.8125 Q80.5313,154.7656 82.125,154.7656 Q82.7188,154.7656 83.3438,154.6094 Q83.9688,154.4531 84.7969,154.0781 L84.7969,156.2969 Q84.0625,156.6094 83.2656,156.7656 Q82.4844,156.9219 81.7188,156.9219 Z " fill="#000000"/><text fill="#000000" font-family="sans-serif" font-size="14" lengthAdjust="spacing" textLength="56" x="102.75" y="155.432">Network</text><line style="stroke:#181818;stroke-width:0.5;" x1="8" x2="221" y1="166" y2="166"/><text fill="#000000" font-family="sans-serif" font-size="14" lengthAdjust="spacing" textLength="203" x="13" y="184.9659">std::variant&lt;TcpPort, Firewall&gt;</text><line style="stroke:#181818;stroke-width:0.5;" x1="8" x2="221" y1="193.0679" y2="193.0679"/></g><!--MD5=[a0bfe97ac0a38e6e74cc1c7c7b744b71]
class Port--><g id="elem_Port"><rect codeLine="5" fill="#F1F1F1" height="67.0679" id="Port" rx="2.5" ry="2.5" style="stroke:#181818;stroke-width:0.5;" width="228" x="266.5" y="134"/><ellipse cx="362.75" cy="150" fill="#ADD1B2" rx="11" ry="11" style="stroke:#181818;stroke-width:1.0;"/><path d="M362.2188,156.9219 Q360.4688,156.9219 359.3281,156.1875 Q358.2031,155.4375 357.6406,154.0938 Q357.0938,152.7344 357.0938,150.9375 Q357.0938,148.9063 357.75,147.4531 Q358.4063,146 359.6875,145.2188 Q360.9688,144.4375 362.8438,144.4375 Q363.7344,144.4375 364.4063,144.625 Q365.0781,144.7969 365.7656,145.1406 L364.9531,147.1563 Q364.3281,146.8438 363.7813,146.7188 Q363.25,146.5938 362.7656,146.5938 Q361.5938,146.5938 360.8906,147.125 Q360.1875,147.6563 359.8906,148.6094 Q359.5938,149.5625 359.5938,150.8281 Q359.5938,152.8438 360.3125,153.8125 Q361.0313,154.7656 362.625,154.7656 Q363.2188,154.7656 363.8438,154.6094 Q364.4688,154.4531 365.2969,154.0781 L365.2969,156.2969 Q364.5625,156.6094 363.7656,156.7656 Q362.9844,156.9219 362.2188,156.9219 Z " fill="#000000"/><text fill="#000000" font-family="sans-serif" font-size="14" lengthAdjust="spacing" textLength="27" x="383.25" y="155.432">Port</text><line style="stroke:#181818;stroke-width:0.5;" x1="267.5" x2="493.5" y1="166" y2="166"/><text fill="#000000" font-family="sans-serif" font-size="14" lengthAdjust="spacing" textLength="216" x="272.5" y="184.9659">std::variant&lt;TcpPort, SerialPort&gt;</text><line style="stroke:#181818;stroke-width:0.5;" x1="267.5" x2="493.5" y1="193.0679" y2="193.0679"/></g><!--MD5=[b7625f1e93cd4312e158f1f67853c14b]
class TcpPort--><g id="elem_TcpPort"><rect codeLine="9" fill="#F1F1F1" height="48" id="TcpPort" rx="2.5" ry="2.5" style="stroke:#181818;stroke-width:0.5;" width="83" x="199" y="7"/><ellipse cx="214" cy="23" fill="#ADD1B2" rx="11" ry="11" style="stroke:#181818;stroke-width:1.0;"/><path d="M213.4688,29.9219 Q211.7188,29.9219 210.5781,29.1875 Q209.4531,28.4375 208.8906,27.0938 Q208.3438,25.7344 208.3438,23.9375 Q208.3438,21.9063 209,20.4531 Q209.6563,19 210.9375,18.2188 Q212.2188,17.4375 214.0938,17.4375 Q214.9844,17.4375 215.6563,17.625 Q216.3281,17.7969 217.0156,18.1406 L216.2031,20.1563 Q215.5781,19.8438 215.0313,19.7188 Q214.5,19.5938 214.0156,19.5938 Q212.8438,19.5938 212.1406,20.125 Q211.4375,20.6563 211.1406,21.6094 Q210.8438,22.5625 210.8438,23.8281 Q210.8438,25.8438 211.5625,26.8125 Q212.2813,27.7656 213.875,27.7656 Q214.4688,27.7656 215.0938,27.6094 Q215.7188,27.4531 216.5469,27.0781 L216.5469,29.2969 Q215.8125,29.6094 215.0156,29.7656 Q214.2344,29.9219 213.4688,29.9219 Z " fill="#000000"/><text fill="#000000" font-family="sans-serif" font-size="14" lengthAdjust="spacing" textLength="51" x="228" y="28.432">TcpPort</text><line style="stroke:#181818;stroke-width:0.5;" x1="200" x2="281" y1="39" y2="39"/><line style="stroke:#181818;stroke-width:0.5;" x1="200" x2="281" y1="47" y2="47"/></g><!--MD5=[cfbdf762610fcc8e7e660678dff86ad1]
class SerialPort--><g id="elem_SerialPort"><rect codeLine="10" fill="#F1F1F1" height="48" id="SerialPort" rx="2.5" ry="2.5" style="stroke:#181818;stroke-width:0.5;" width="97" x="342" y="7"/><ellipse cx="357" cy="23" fill="#ADD1B2" rx="11" ry="11" style="stroke:#181818;stroke-width:1.0;"/><path d="M356.4688,29.9219 Q354.7188,29.9219 353.5781,29.1875 Q352.4531,28.4375 351.8906,27.0938 Q351.3438,25.7344 351.3438,23.9375 Q351.3438,21.9063 352,20.4531 Q352.6563,19 353.9375,18.2188 Q355.2188,17.4375 357.0938,17.4375 Q357.9844,17.4375 358.6563,17.625 Q359.3281,17.7969 360.0156,18.1406 L359.2031,20.1563 Q358.5781,19.8438 358.0313,19.7188 Q357.5,19.5938 357.0156,19.5938 Q355.8438,19.5938 355.1406,20.125 Q354.4375,20.6563 354.1406,21.6094 Q353.8438,22.5625 353.8438,23.8281 Q353.8438,25.8438 354.5625,26.8125 Q355.2813,27.7656 356.875,27.7656 Q357.4688,27.7656 358.0938,27.6094 Q358.7188,27.4531 359.5469,27.0781 L359.5469,29.2969 Q358.8125,29.6094 358.0156,29.7656 Q357.2344,29.9219 356.4688,29.9219 Z " fill="#000000"/><text fill="#000000" font-family="sans-serif" font-size="14" lengthAdjust="spacing" textLength="65" x="371" y="28.432">SerialPort</text><line style="stroke:#181818;stroke-width:0.5;" x1="343" x2="438" y1="39" y2="39"/><line style="stroke:#181818;stroke-width:0.5;" x1="343" x2="438" y1="47" y2="47"/></g><!--MD5=[5d6a3ac4380d16b9d61a9e01b1f55c87]
class Firewall--><g id="elem_Firewall"><rect codeLine="11" fill="#F1F1F1" height="48" id="Firewall" rx="2.5" ry="2.5" style="stroke:#181818;stroke-width:0.5;" width="84" x="54.5" y="7"/><ellipse cx="69.5" cy="23" fill="#ADD1B2" rx="11" ry="11" style="stroke:#181818;stroke-width:1.0;"/><path d="M68.9688,29.9219 Q67.2188,29.9219 66.0781,29.1875 Q64.9531,28.4375 64.3906,27.0938 Q63.8438,25.7344 63.8438,23.9375 Q63.8438,21.9063 64.5,20.4531 Q65.1563,19 66.4375,18.2188 Q67.7188,17.4375 69.5938,17.4375 Q70.4844,17.4375 71.1563,17.625 Q71.8281,17.7969 72.5156,18.1406 L71.7031,20.1563 Q71.0781,19.8438 70.5313,19.7188 Q70,19.5938 69.5156,19.5938 Q68.3438,19.5938 67.6406,20.125 Q66.9375,20.6563 66.6406,21.6094 Q66.3438,22.5625 66.3438,23.8281 Q66.3438,25.8438 67.0625,26.8125 Q67.7813,27.7656 69.375,27.7656 Q69.9688,27.7656 70.5938,27.6094 Q71.2188,27.4531 72.0469,27.0781 L72.0469,29.2969 Q71.3125,29.6094 70.5156,29.7656 Q69.7344,29.9219 68.9688,29.9219 Z " fill="#000000"/><text fill="#000000" font-family="sans-serif" font-size="14" lengthAdjust="spacing" textLength="52" x="83.5" y="28.432">Firewall</text><line style="stroke:#181818;stroke-width:0.5;" x1="55.5" x2="137.5" y1="39" y2="39"/><line style="stroke:#181818;stroke-width:0.5;" x1="55.5" x2="137.5" y1="47" y2="47"/></g><!--MD5=[0fc854fc90d522412e31821db10306aa]
link TcpPort to Network--><g id="link_TcpPort_Network"><path codeLine="13" d="M218.55,55.43 C198.32,77.03 168.07,109.31 145.4,133.52 " fill="none" id="TcpPort-Network" style="stroke:#181818;stroke-width:1.0;"/><text fill="#000000" font-family="sans-serif" font-size="13" lengthAdjust="spacing" textLength="56" x="190.5" y="99.897">variant&lt;&gt;</text></g><!--MD5=[b4e9f66218595600239fab8f4f119eaf]
link Firewall to Network--><g id="link_Firewall_Network"><path codeLine="14" d="M93.13,55.49 C91.69,69.63 90.88,87.95 93.5,104 C95.11,113.83 98.05,124.19 101.23,133.6 " fill="none" id="Firewall-Network" style="stroke:#181818;stroke-width:1.0;"/><text fill="#000000" font-family="sans-serif" font-size="13" lengthAdjust="spacing" textLength="56" x="94.5" y="99.897">variant&lt;&gt;</text></g><!--MD5=[34fad255a2c26137c9dfbadd803f5b48]
link TcpPort to Port--><g id="link_TcpPort_Port"><path codeLine="16" d="M264.89,55.43 C287.37,77.03 320.97,109.31 346.17,133.52 " fill="none" id="TcpPort-Port" style="stroke:#181818;stroke-width:1.0;"/><text fill="#000000" font-family="sans-serif" font-size="13" lengthAdjust="spacing" textLength="56" x="316.5" y="99.897">variant&lt;&gt;</text></g><!--MD5=[aaf2e391e768fc70e4ecc092013a27f0]
link SerialPort to Port--><g id="link_SerialPort_Port"><path codeLine="17" d="M388.76,55.43 C387.15,77.03 384.75,109.31 382.95,133.52 " fill="none" id="SerialPort-Port" style="stroke:#181818;stroke-width:1.0;"/><text fill="#000000" font-family="sans-serif" font-size="13" lengthAdjust="spacing" textLength="56" x="386.5" y="99.897">variant&lt;&gt;</text></g><!--MD5=[133e082fc513b2cbdd15b91af7e15aad]
@startuml
class Network {
  std::variant<TcpPort, Firewall>
}

class Port {
  std::variant<TcpPort, SerialPort>
}

class TcpPort
class SerialPort
class Firewall

TcpPort - - Network : variant<>
Firewall - - Network : variant<>

TcpPort - - Port : variant<>
SerialPort - - Port : variant<>
@enduml

PlantUML version 1.2022.7(Mon Aug 22 20:01:30 EEST 2022)
(GPL source distribution)
Java Runtime: OpenJDK Runtime Environment
JVM: OpenJDK 64-Bit Server VM
Default Encoding: UTF-8
Language: en
Country: US
--></g></svg>