<?xml version="1.0" encoding="UTF-8" standalone="no"?><svg xmlns="http://www.w3.org/2000/svg" xmlns:xlink="http://www.w3.org/1999/xlink" contentStyleType="text/css" height="284px" preserveAspectRatio="none" style="width:380px;height:284px;background:#FFFFFF;" version="1.1" viewBox="0 0 380 284" width="380px" zoomAndPan="magnify"><defs/><g><!--MD5=[a0bfe97ac0a38e6e74cc1c7c7b744b71]
class Port--><g id="elem_Port"><rect codeLine="2" fill="#F1F1F1" height="105.2038" id="Port" rx="2.5" ry="2.5" style="stroke:#181818;stroke-width:0.5;" width="257" x="7" y="172"/><ellipse cx="117.75" cy="188" fill="#ADD1B2" rx="11" ry="11" style="stroke:#181818;stroke-width:1.0;"/><path d="M117.2188,194.9219 Q115.4688,194.9219 114.3281,194.1875 Q113.2031,193.4375 112.6406,192.0938 Q112.0938,190.7344 112.0938,188.9375 Q112.0938,186.9063 112.75,185.4531 Q113.4063,184 114.6875,183.2188 Q115.9688,182.4375 117.8438,182.4375 Q118.7344,182.4375 119.4063,182.625 Q120.0781,182.7969 120.7656,183.1406 L119.9531,185.1563 Q119.3281,184.8438 118.7813,184.7188 Q118.25,184.5938 117.7656,184.5938 Q116.5938,184.5938 115.8906,185.125 Q115.1875,185.6563 114.8906,186.6094 Q114.5938,187.5625 114.5938,188.8281 Q114.5938,190.8438 115.3125,191.8125 Q116.0313,192.7656 117.625,192.7656 Q118.2188,192.7656 118.8438,192.6094 Q119.4688,192.4531 120.2969,192.0781 L120.2969,194.2969 Q119.5625,194.6094 118.7656,194.7656 Q117.9844,194.9219 117.2188,194.9219 Z " fill="#000000"/><text fill="#000000" font-family="sans-serif" font-size="14" lengthAdjust="spacing" textLength="27" x="138.25" y="193.432">Port</text><line style="stroke:#181818;stroke-width:0.5;" x1="8" x2="263" y1="204" y2="204"/><rect fill="none" height="6" style="stroke:#C82930;stroke-width:1.0;" width="6" x="15" y="216.034"/><text fill="#000000" font-family="sans-serif" font-size="14" lengthAdjust="spacing" textLength="98" x="27" y="222.9659">PortType type_</text><line style="stroke:#181818;stroke-width:0.5;" x1="8" x2="263" y1="231.0679" y2="231.0679"/><ellipse cx="18" cy="246.1019" fill="#84BE84" rx="3" ry="3" style="stroke:#038048;stroke-width:1.0;"/><text fill="#000000" font-family="sans-serif" font-size="14" lengthAdjust="spacing" textLength="177" x="27" y="250.0339">Port(PortType pt) noexcept</text><ellipse cx="18" cy="265.1698" fill="#84BE84" rx="3" ry="3" style="stroke:#038048;stroke-width:1.0;"/><text fill="#000000" font-family="sans-serif" font-size="14" lengthAdjust="spacing" textLength="231" x="27" y="269.1018">PortType GetType() const noexcept</text></g><!--MD5=[b7625f1e93cd4312e158f1f67853c14b]
class TcpPort--><g id="elem_TcpPort"><rect codeLine="7" fill="#F1F1F1" height="48" id="TcpPort" rx="2.5" ry="2.5" style="stroke:#181818;stroke-width:0.5;" width="83" x="32" y="35.5"/><ellipse cx="47" cy="51.5" fill="#ADD1B2" rx="11" ry="11" style="stroke:#181818;stroke-width:1.0;"/><path d="M46.4688,58.4219 Q44.7188,58.4219 43.5781,57.6875 Q42.4531,56.9375 41.8906,55.5938 Q41.3438,54.2344 41.3438,52.4375 Q41.3438,50.4063 42,48.9531 Q42.6563,47.5 43.9375,46.7188 Q45.2188,45.9375 47.0938,45.9375 Q47.9844,45.9375 48.6563,46.125 Q49.3281,46.2969 50.0156,46.6406 L49.2031,48.6563 Q48.5781,48.3438 48.0313,48.2188 Q47.5,48.0938 47.0156,48.0938 Q45.8438,48.0938 45.1406,48.625 Q44.4375,49.1563 44.1406,50.1094 Q43.8438,51.0625 43.8438,52.3281 Q43.8438,54.3438 44.5625,55.3125 Q45.2813,56.2656 46.875,56.2656 Q47.4688,56.2656 48.0938,56.1094 Q48.7188,55.9531 49.5469,55.5781 L49.5469,57.7969 Q48.8125,58.1094 48.0156,58.2656 Q47.2344,58.4219 46.4688,58.4219 Z " fill="#000000"/><text fill="#000000" font-family="sans-serif" font-size="14" lengthAdjust="spacing" textLength="51" x="61" y="56.932">TcpPort</text><line style="stroke:#181818;stroke-width:0.5;" x1="33" x2="114" y1="67.5" y2="67.5"/><line style="stroke:#181818;stroke-width:0.5;" x1="33" x2="114" y1="75.5" y2="75.5"/></g><!--MD5=[cfbdf762610fcc8e7e660678dff86ad1]
class SerialPort--><g id="elem_SerialPort"><rect codeLine="10" fill="#F1F1F1" height="48" id="SerialPort" rx="2.5" ry="2.5" style="stroke:#181818;stroke-width:0.5;" width="97" x="150" y="35.5"/><ellipse cx="165" cy="51.5" fill="#ADD1B2" rx="11" ry="11" style="stroke:#181818;stroke-width:1.0;"/><path d="M164.4688,58.4219 Q162.7188,58.4219 161.5781,57.6875 Q160.4531,56.9375 159.8906,55.5938 Q159.3438,54.2344 159.3438,52.4375 Q159.3438,50.4063 160,48.9531 Q160.6563,47.5 161.9375,46.7188 Q163.2188,45.9375 165.0938,45.9375 Q165.9844,45.9375 166.6563,46.125 Q167.3281,46.2969 168.0156,46.6406 L167.2031,48.6563 Q166.5781,48.3438 166.0313,48.2188 Q165.5,48.0938 165.0156,48.0938 Q163.8438,48.0938 163.1406,48.625 Q162.4375,49.1563 162.1406,50.1094 Q161.8438,51.0625 161.8438,52.3281 Q161.8438,54.3438 162.5625,55.3125 Q163.2813,56.2656 164.875,56.2656 Q165.4688,56.2656 166.0938,56.1094 Q166.7188,55.9531 167.5469,55.5781 L167.5469,57.7969 Q166.8125,58.1094 166.0156,58.2656 Q165.2344,58.4219 164.4688,58.4219 Z " fill="#000000"/><text fill="#000000" font-family="sans-serif" font-size="14" lengthAdjust="spacing" textLength="65" x="179" y="56.932">SerialPort</text><line style="stroke:#181818;stroke-width:0.5;" x1="151" x2="246" y1="67.5" y2="67.5"/><line style="stroke:#181818;stroke-width:0.5;" x1="151" x2="246" y1="75.5" y2="75.5"/></g><!--MD5=[cf30c9d02ccfd96cbc8c73524e56fec4]
class PortType--><g id="elem_PortType"><rect codeLine="13" fill="#F1F1F1" height="105.2038" id="PortType" rx="2.5" ry="2.5" style="stroke:#181818;stroke-width:0.5;" width="91" x="282" y="7"/><ellipse cx="297" cy="23" fill="#EB937F" rx="11" ry="11" style="stroke:#181818;stroke-width:1.0;"/><path d="M293.3594,29.5 L293.3594,17.3594 L301.0156,17.3594 L301.0156,19.4844 L295.7344,19.4844 L295.7344,22.1406 L300.75,22.1406 L300.75,24.2656 L295.7344,24.2656 L295.7344,27.375 L301.0156,27.375 L301.0156,29.5 L293.3594,29.5 Z " fill="#000000"/><text fill="#000000" font-family="sans-serif" font-size="14" lengthAdjust="spacing" textLength="59" x="311" y="28.432">PortType</text><line style="stroke:#181818;stroke-width:0.5;" x1="283" x2="372" y1="39" y2="39"/><text fill="#000000" font-family="sans-serif" font-size="14" lengthAdjust="spacing" textLength="21" x="288" y="57.9659">tcp</text><text fill="#000000" font-family="sans-serif" font-size="14" lengthAdjust="spacing" textLength="37" x="288" y="77.0339">serial</text><text fill="#000000" font-family="sans-serif" font-size="14" lengthAdjust="spacing" textLength="32" x="288" y="96.1018">end_</text><line style="stroke:#181818;stroke-width:0.5;" x1="283" x2="372" y1="104.2038" y2="104.2038"/></g><!--MD5=[34fad255a2c26137c9dfbadd803f5b48]
link TcpPort to Port--><g id="link_TcpPort_Port"><path codeLine="19" d="M82.38,83.85 C89.23,101.84 99.07,127.72 108.43,152.32 " fill="none" id="TcpPort-to-Port" style="stroke:#181818;stroke-width:1.0;"/><polygon fill="none" points="115.19,149.42,115.76,170.61,102.11,154.4,115.19,149.42" style="stroke:#181818;stroke-width:1.0;"/></g><!--MD5=[aaf2e391e768fc70e4ecc092013a27f0]
link SerialPort to Port--><g id="link_SerialPort_Port"><path codeLine="20" d="M189.47,83.85 C182.52,101.84 172.52,127.72 163.01,152.32 " fill="none" id="SerialPort-to-Port" style="stroke:#181818;stroke-width:1.0;"/><polygon fill="none" points="169.3,154.47,155.56,170.61,156.24,149.43,169.3,154.47" style="stroke:#181818;stroke-width:1.0;"/></g><!--MD5=[3227af63d68c337412f3efca913e6540]
@startuml 

class Port {
    - PortType type_
    + Port(PortType pt) noexcept
    + PortType GetType() const noexcept
}
class TcpPort {
}

class SerialPort {
}

enum PortType {
    tcp
    serial
    end_
}

TcpPort - -|> Port 
SerialPort - -|> Port

@enduml

PlantUML version 1.2022.7(Mon Aug 22 20:01:30 EEST 2022)
(GPL source distribution)
Java Runtime: OpenJDK Runtime Environment
JVM: OpenJDK 64-Bit Server VM
Default Encoding: UTF-8
Language: en
Country: US
--></g></svg>